<svg width="23" height="33" viewBox="0 0 23 33" fill="none" xmlns="http://www.w3.org/2000/svg">
<path d="M11.5 2.75C15.8945 2.75 19.75 6.34975 19.75 10.4528C19.75 14.7056 16.3221 20.2593 11.5 27.8616C6.67788 20.2593 3.25 14.7056 3.25 10.4528C3.25 6.34975 7.1055 2.75 11.5 2.75ZM11.5 0C5.72775 0 0.5 4.67913 0.5 10.4528C0.5 16.225 5.26987 23.1165 11.5 33C17.7301 23.1165 22.5 16.225 22.5 10.4528C22.5 4.67913 17.2736 0 11.5 0V0ZM11.5 15.125C9.22163 15.125 7.375 13.2784 7.375 11C7.375 8.72163 9.22163 6.875 11.5 6.875C13.7784 6.875 15.625 8.72163 15.625 11C15.625 13.2784 13.7784 15.125 11.5 15.125Z" fill="black"/>
</svg>
