<svg width="18" height="24" viewBox="0 0 18 24" fill="none" xmlns="http://www.w3.org/2000/svg">
<path d="M3.17609 1.322L6.02009 0L10.0611 7.89L7.33709 9.231C6.79909 10.49 9.49609 15.52 10.6341 15.603C10.7241 15.545 13.3051 14.275 13.3051 14.275L17.4151 22.207C17.4151 22.207 14.6511 23.561 14.5611 23.603C6.69909 27.194 -4.54191 5.345 3.17609 1.322ZM5.10509 2.596L4.08209 3.1C-1.21191 5.862 8.25909 24.285 13.7301 21.786L14.7011 21.312L12.4301 16.929L11.4041 17.429C8.24109 18.976 3.14209 9.21 6.34909 7.491L7.35609 6.994L5.10509 2.596Z" fill="black"/>
</svg>
